<mxfile host="app.diagrams.net" modified="2023-10-29T14:07:53.299Z" agent="Mozilla/5.0 (Windows NT 10.0; Win64; x64; rv:109.0) Gecko/20100101 Firefox/119.0" etag="kwr_7kU3KkIVNTkAlzZ2" version="22.0.8" type="github">
  <diagram name="1 oldal" id="4mInSGxOfqtwpyQyavi3">
    <mxGraphModel dx="2391" dy="1117" grid="1" gridSize="10" guides="1" tooltips="1" connect="1" arrows="1" fold="1" page="1" pageScale="1" pageWidth="827" pageHeight="1169" math="0" shadow="0">
      <root>
        <mxCell id="0" />
        <mxCell id="1" parent="0" />
      </root>
    </mxGraphModel>
  </diagram>
</mxfile>
